{"title":"Twin Town (dvd rip) avi.","uid":4555432,"size":699011470,"categoryP":"video","categoryS":"movies","magnet":"?xt=urn:btih:8bcaeef4188a4f33e9c03367497066c61f00cf4f&amp;dn=Twin+Town+%28dvd+rip%29+avi.&amp;tr=udp%3A%2F%2Ftracker.openbittorrent.com%3A80&amp;tr=udp%3A%2F%2Fopen.demonii.com%3A1337&amp;tr=udp%3A%2F%2Ftracker.coppersurfer.tk%3A6969&amp;tr=udp%3A%2F%2Fexodus.desync.com%3A6969","seeders":4,"leechers":0,"uploader":"snakebite1244","files":1,"time":1228466897,"description":"Dark comedy set in Swansea, two brothers create havoc in their local community while pursued by two bent coppers.Hilariously funny with a great twist in the tail.\n\nThis is my 1st upload so any comments on how to improve quality would be appreciated.\n\n\n\n\n\n\nComplete name                    : C:Twin Towns avi.avi\nFormat                           : AVI\nFormat/Info                      : Audio Video Interleave\nFile size                        : 667 MiB\nDuration                         : 1h 34mn\nOverall bit rate                 : 982 Kbps\n\nVideo\nFormat                           : MPEG-4 Visual\nFormat settings, BVOP            : Yes\nFormat settings, QPel            : No\nFormat settings, GMC             : No warppoints\nFormat settings, Matrix          : Default\nMuxing mode                      : Packed bitstream\nCodec ID                         : DX50\nCodec ID/Hint                    : DivX 5\nDuration                         : 1h 34mn\nBit rate                         : 780 Kbps\nWidth                            : 720 pixels\nHeight                           : 536 pixels\nDisplay aspect ratio             : 4/3\nFrame rate                       : 25.000 fps\nResolution                       : 24 bits\nColorimetry                      : 4:2:0\nScan type                        : Progressive\nBits/(Pixel*Frame)               : 0.081\nStream size                      : 530 MiB (79%)\nWriting library                  : DivX 2676\n\nAudio\nFormat                           : MPEG Audio\nFormat version                   : Version 1\nFormat profile                   : Layer 3\nCodec ID                         : 55\nCodec ID/Hint                    : MP3\nDuration                         : 1h 34mn\nBit rate mode                    : Constant\nBit rate                         : 192 Kbps\nChannel(s)                       : 2 channels\nSampling rate                    : 44.1 KHz\nResolution                       : 16 bits\nStream size                      : 130 MiB (20%)\nAlignment                        : Split accross interleaves\nInterleave, duration             : 40 ms (1.00 video frame)\n\n\n\n\n","torrent":{"xt":"urn:btih:8bcaeef4188a4f33e9c03367497066c61f00cf4f","amp;dn":"Twin+Town+%28dvd+rip%29+avi.","amp;tr":["udp%3A%2F%2Ftracker.openbittorrent.com%3A80","udp%3A%2F%2Fopen.demonii.com%3A1337","udp%3A%2F%2Ftracker.coppersurfer.tk%3A6969","udp%3A%2F%2Fexodus.desync.com%3A6969"],"infoHash":"8bcaeef4188a4f33e9c03367497066c61f00cf4f","infoHashBuffer":{"type":"Buffer","data":[139,202,238,244,24,138,79,51,233,192,51,103,73,112,102,198,31,0,207,79]},"announce":[],"urlList":[]}}